# xmcd CD database file
# Copyright (C) 1995-1998 Ti Kan
#
# Track frame offsets:
#	150
#	14629
#	25021
#	47891
#	60513
#	79712
#	101561
#	125844
#	141587
#	152210
#	162414
#	174663
#	193250
#	202606
#	230196
#	251818
#	270301
#	291492
#	300863
#
# Disc length: 4241 seconds
#
# Revision: 1
# Processed by: cddbd v1.4b42PL0 Copyright (c) Steve Scherf et al.
# Submitted via: CDex 1.30
#
DISCID=15108f13
DTITLE=Sunburst Blue - Practice CD 001
DYEAR=2001
DGENRE=Blues
TTITLE0=20th Century Blues
TTITLE1=Blue Sude Shoes
TTITLE2=Boom Boom (Out Go The Lights)
TTITLE3=Born Under A Bad Sign
TTITLE4=Crossroads
TTITLE5=Extermination Blues
TTITLE6=I Want To Take You Higher
TTITLE7=Matchbox
TTITLE8=Messin' With The Kid
TTITLE9=Miserlou
TTITLE10=Party On The Patio
TTITLE11=Rack 'Em Up
TTITLE12=Sleepwalk
TTITLE13=Step Into The Dark
TTITLE14=Thank You
TTITLE15=The Moon Is Full
TTITLE16=Very Superstitious
TTITLE17=Walk Don't Run
TTITLE18=(Wish I Could) Hideaway
EXTD=YEAR: 2001  ID3G:   0
EXTT0=
EXTT1=
EXTT2=
EXTT3=
EXTT4=
EXTT5=
EXTT6=
EXTT7=
EXTT8=
EXTT9=
EXTT10=
EXTT11=
EXTT12=
EXTT13=
EXTT14=
EXTT15=
EXTT16=
EXTT17=
EXTT18=
PLAYORDER=
